<svg xmlns="http://www.w3.org/2000/svg" viewBox="0 0 120 170" width="120" height="170" role="img" aria-label="TaxiLink Pro">
  <defs>
    <clipPath id="tlIcPin"><path d="M 60 4 C 30 4 8 26 8 56 C 8 88 60 156 60 156 C 60 156 112 88 112 56 C 112 26 90 4 60 4 Z"/></clipPath>
    <clipPath id="tlIcZh"><polygon points="0,0 120,0 120,62 0,72"/></clipPath>
    <clipPath id="tlIcZb"><polygon points="0,72 120,62 120,160 0,160"/></clipPath>
  </defs>
  <ellipse cx="60" cy="161" rx="22" ry="7" fill="rgba(0,0,0,0.18)"/>
  <g clip-path="url(#tlIcPin)">
    <rect width="120" height="160" fill="#09090B"/>
    <polygon points="0,72 120,62 120,160 0,160" fill="#FBBF24"/>
    <g clip-path="url(#tlIcZh)" fill="#FBBF24">
      <rect x="32" y="22" width="56" height="13" rx="2"/>
      <rect x="53" y="22" width="14" height="82"/>
      <rect x="53" y="91" width="35" height="13" rx="2"/>
    </g>
    <g clip-path="url(#tlIcZb)" fill="#09090B">
      <rect x="32" y="22" width="56" height="13" rx="2"/>
      <rect x="53" y="22" width="14" height="82"/>
      <rect x="53" y="91" width="35" height="13" rx="2"/>
    </g>
  </g>
</svg>
