<svg xmlns="http://www.w3.org/2000/svg" viewBox="0 0 560 280" width="560" height="280" role="img" aria-label="TaxiLink Pro">
  <defs>
    <clipPath id="tlStC"><rect width="120" height="120" rx="18"/></clipPath>
    <clipPath id="tlStZh"><polygon points="0,0 120,0 120,45 0,75"/></clipPath>
    <clipPath id="tlStZb"><polygon points="0,75 120,45 120,120 0,120"/></clipPath>
  </defs>
  <g transform="translate(220, 10)" clip-path="url(#tlStC)">
    <rect width="120" height="120" fill="#09090B"/>
    <polygon points="0,75 120,45 120,120 0,120" fill="#FBBF24"/>
    <g clip-path="url(#tlStZh)" fill="#FBBF24">
      <rect x="30" y="24" width="60" height="13" rx="2"/>
      <rect x="53" y="24" width="14" height="72"/>
      <rect x="53" y="83" width="37" height="13" rx="2"/>
    </g>
    <g clip-path="url(#tlStZb)" fill="#09090B">
      <rect x="30" y="24" width="60" height="13" rx="2"/>
      <rect x="53" y="24" width="14" height="72"/>
      <rect x="53" y="83" width="37" height="13" rx="2"/>
    </g>
  </g>
  <g transform="translate(0, 160)">
    <text x="0" y="82" font-family="'Plus Jakarta Sans', system-ui, -apple-system, 'Segoe UI', Roboto, sans-serif" font-size="88" font-weight="800" fill="#09090B" letter-spacing="-3.5">Tax</text>
    <circle cx="162" cy="30" r="11" fill="#FBBF24"/>
    <rect x="156" y="52" width="12" height="38" rx="2" fill="#09090B"/>
    <text x="178" y="82" font-family="'Plus Jakarta Sans', system-ui, -apple-system, 'Segoe UI', Roboto, sans-serif" font-size="88" font-weight="800" fill="#09090B" letter-spacing="-3.5">L</text>
    <circle cx="242" cy="30" r="11" fill="#FBBF24"/>
    <rect x="236" y="52" width="12" height="38" rx="2" fill="#09090B"/>
    <text x="258" y="82" font-family="'Plus Jakarta Sans', system-ui, -apple-system, 'Segoe UI', Roboto, sans-serif" font-size="88" font-weight="800" fill="#09090B" letter-spacing="-3.5">nk</text>
    <text x="405" y="82" font-family="'Plus Jakarta Sans', system-ui, -apple-system, 'Segoe UI', Roboto, sans-serif" font-size="88" font-weight="700" fill="#A1A1AA" letter-spacing="-3.5">Pro</text>
  </g>
</svg>
