<svg xmlns="http://www.w3.org/2000/svg" viewBox="0 0 720 200" width="720" height="200" role="img" aria-label="TaxiLink Pro — La plateforme de partage de course entre taxis">
  <defs>
    <clipPath id="tlWtPin"><path d="M 60 4 C 30 4 8 26 8 56 C 8 88 60 156 60 156 C 60 156 112 88 112 56 C 112 26 90 4 60 4 Z"/></clipPath>
    <clipPath id="tlWtZh"><polygon points="0,0 120,0 120,62 0,72"/></clipPath>
    <clipPath id="tlWtZb"><polygon points="0,72 120,62 120,160 0,160"/></clipPath>
  </defs>
  <ellipse cx="60" cy="161" rx="22" ry="7" fill="rgba(0,0,0,0.18)"/>
  <g clip-path="url(#tlWtPin)">
    <rect width="120" height="160" fill="#09090B"/>
    <polygon points="0,72 120,62 120,160 0,160" fill="#FBBF24"/>
    <g clip-path="url(#tlWtZh)" fill="#FBBF24">
      <rect x="32" y="22" width="56" height="13" rx="2"/>
      <rect x="53" y="22" width="14" height="82"/>
      <rect x="53" y="91" width="35" height="13" rx="2"/>
    </g>
    <g clip-path="url(#tlWtZb)" fill="#09090B">
      <rect x="32" y="22" width="56" height="13" rx="2"/>
      <rect x="53" y="22" width="14" height="82"/>
      <rect x="53" y="91" width="35" height="13" rx="2"/>
    </g>
  </g>
  <g transform="translate(142, 30)">
    <text x="0" y="82" font-family="'Plus Jakarta Sans', system-ui, -apple-system, 'Segoe UI', Roboto, sans-serif" font-size="88" font-weight="800" fill="#09090B" letter-spacing="-3.5">Tax</text>
    <circle cx="162" cy="30" r="11" fill="#FBBF24"/>
    <rect x="156" y="52" width="12" height="38" rx="2" fill="#09090B"/>
    <text x="178" y="82" font-family="'Plus Jakarta Sans', system-ui, -apple-system, 'Segoe UI', Roboto, sans-serif" font-size="88" font-weight="800" fill="#09090B" letter-spacing="-3.5">L</text>
    <circle cx="242" cy="30" r="11" fill="#FBBF24"/>
    <rect x="236" y="52" width="12" height="38" rx="2" fill="#09090B"/>
    <text x="258" y="82" font-family="'Plus Jakarta Sans', system-ui, -apple-system, 'Segoe UI', Roboto, sans-serif" font-size="88" font-weight="800" fill="#09090B" letter-spacing="-3.5">nk</text>
    <text x="405" y="82" font-family="'Plus Jakarta Sans', system-ui, -apple-system, 'Segoe UI', Roboto, sans-serif" font-size="88" font-weight="700" fill="#A1A1AA" letter-spacing="-3.5">Pro</text>
  </g>
  <text x="144" y="188" font-family="'Plus Jakarta Sans', system-ui, -apple-system, 'Segoe UI', Roboto, sans-serif" font-size="15" font-weight="500" fill="#71717A" letter-spacing="0.3">La plateforme de partage de course entre taxis</text>
</svg>
